# xmcd CD database file
#
# Track frame offsets:
#	150
#	15975
#	30525
#	46777
#	63312
#	78145
#	96970
#	118070
#	133485
#	151102
#	169737
#	185457
#	203250
#	217725
#
# Disc length: 3086 seconds
#
# Revision: 0
# Processed by: cddbd v1.5PL3 Copyright (c) Steve Scherf et al.
# Submitted via: CDex 1.51
#
DISCID=a60c0c0e
DTITLE=O-Town - O-Town
DYEAR=1900
DGENRE=Pop
TTITLE0=Liquid Dreams
TTITLE1=Every Six Seconds
TTITLE2=Girl
TTITLE3=Sexiest Woman Alive
TTITLE4=Love Should Be A Crime
TTITLE5=Shy Girl
TTITLE6=All or Nothing
TTITLE7=Sensitive
TTITLE8=The Painter
TTITLE9=Take Me Under
TTITLE10=All For Love
TTITLE11=Baby I Would
TTITLE12=Liquid Dreams(Hq2 Radio Mix)
TTITLE13=Liquid Dreams(Mike RAzzio Radio Mix)
EXTD=
EXTT0=
EXTT1=
EXTT2=
EXTT3=
EXTT4=
EXTT5=
EXTT6=
EXTT7=
EXTT8=
EXTT9=
EXTT10=
EXTT11=
EXTT12=
EXTT13=
PLAYORDER=
